<svg width="32" height="32" viewBox="0 0 32 32" fill="none" xmlns="http://www.w3.org/2000/svg">
<g clip-path="url(#clip0)">
<path d="M16 0.782715C7.4404 0.782715 0.5 7.72312 0.5 16.2827C0.5 24.8423 7.4404 31.7827 16 31.7827C24.5596 31.7827 31.5 24.8423 31.5 16.2827C31.5 7.72312 24.5596 0.782715 16 0.782715ZM22.6429 17.1131C22.6429 17.2653 22.5183 17.3899 22.3661 17.3899H17.1071V22.6488C17.1071 22.801 16.9826 22.9256 16.8304 22.9256H15.1696C15.0174 22.9256 14.8929 22.801 14.8929 22.6488V17.3899H9.63393C9.4817 17.3899 9.35714 17.2653 9.35714 17.1131L9.35714 15.4524C9.35714 15.3001 9.4817 15.1756 9.63393 15.1756H14.8929V9.91664C14.8929 9.76441 15.0174 9.63986 15.1696 9.63986L16.8304 9.63986C16.9826 9.63986 17.1071 9.76441 17.1071 9.91664V15.1756H22.3661C22.5183 15.1756 22.6429 15.3001 22.6429 15.4524V17.1131Z" fill="#F1E3CB"/>
</g>
<defs>
<clipPath id="clip0">
<rect width="31" height="31" fill="white" transform="translate(0.5 0.782715)"/>
</clipPath>
</defs>
</svg>
