<svg width="24" height="25" viewBox="0 0 24 25" fill="none" xmlns="http://www.w3.org/2000/svg">
<path d="M21.7104 3.51684C21.5701 4.2188 20.7043 5.55253 19.1132 7.51801C17.5221 9.4835 15.5527 11.6401 13.205 13.9877C10.8574 16.3354 8.70079 18.3048 6.7353 19.8959C4.76981 21.487 3.43609 22.3528 2.73413 22.4932C4.04445 23.7099 5.67846 24.4431 7.63615 24.6926C9.59384 24.9422 11.6256 24.6731 13.7315 23.8854C15.8374 23.0976 17.7288 21.8653 19.4057 20.1884C21.0826 18.5115 22.3149 16.6201 23.1027 14.5142C23.8904 12.4083 24.1595 10.3766 23.9099 8.41886C23.6603 6.46117 22.9272 4.82717 21.7104 3.51684ZM10.795 11.5777C13.1426 9.23002 15.2992 7.26063 17.2647 5.66952C19.2302 4.07841 20.5639 3.21266 21.2659 3.07227C19.9555 1.85554 18.3215 1.12238 16.3639 0.872791C14.4062 0.623205 12.3744 0.89229 10.2685 1.68005C8.16262 2.4678 6.27123 3.70013 4.59432 5.37704C2.91742 7.05394 1.68509 8.94533 0.89733 11.0512C0.109575 13.1571 -0.15951 15.1889 0.0900761 17.1466C0.339662 19.1043 1.07282 20.7383 2.28955 22.0486C2.42994 21.3466 3.29569 20.0129 4.8868 18.0474C6.47791 16.0819 8.4473 13.9254 10.795 11.5777Z" fill="#290001"/>
</svg>
